<svg width="41" height="40" viewBox="0 0 41 40" fill="none" xmlns="http://www.w3.org/2000/svg">
<path d="M18.3335 19.4995C18.3335 19.6897 18.2574 19.8722 18.1219 20.0067C17.9865 20.1413 17.8028 20.2168 17.6112 20.2168H8.9445C8.75295 20.2168 8.56925 20.1413 8.43381 20.0067C8.29836 19.8722 8.22227 19.6897 8.22227 19.4995C8.22227 19.3092 8.29836 19.1267 8.43381 18.9922C8.56925 18.8577 8.75295 18.7821 8.9445 18.7821H17.6112C17.8028 18.7821 17.9865 18.8577 18.1219 18.9922C18.2574 19.1267 18.3335 19.3092 18.3335 19.4995ZM17.6112 13.0432H8.9445C8.75295 13.0432 8.56925 13.1187 8.43381 13.2533C8.29836 13.3878 8.22227 13.5703 8.22227 13.7605C8.22227 13.9508 8.29836 14.1332 8.43381 14.2678C8.56925 14.4023 8.75295 14.4779 8.9445 14.4779H17.6112C17.8028 14.4779 17.9865 14.4023 18.1219 14.2678C18.2574 14.1332 18.3335 13.9508 18.3335 13.7605C18.3335 13.5703 18.2574 13.3878 18.1219 13.2533C17.9865 13.1187 17.8028 13.0432 17.6112 13.0432ZM37.1114 23.7571V35.2816C37.1115 35.4076 37.0783 35.5314 37.015 35.6406C36.9517 35.7498 36.8605 35.8405 36.7507 35.9036C36.6409 35.9667 36.5163 36 36.3894 36C36.2625 36 36.1379 35.9669 36.028 35.9039L31.3335 33.2389L26.6391 35.9039C26.5292 35.9669 26.4045 36 26.2777 36C26.1508 36 26.0262 35.9667 25.9164 35.9036C25.8065 35.8405 25.7154 35.7498 25.6521 35.6406C25.5888 35.5314 25.5555 35.4076 25.5557 35.2816V30.26H3.16668C2.59204 30.26 2.04094 30.0333 1.63461 29.6297C1.22827 29.2261 1 28.6787 1 28.1079V5.1521C1 4.58133 1.22827 4.03393 1.63461 3.63034C2.04094 3.22674 2.59204 3 3.16668 3H34.9447C35.5193 3 36.0704 3.22674 36.4767 3.63034C36.8831 4.03393 37.1114 4.58133 37.1114 5.1521V10.9377C38.0201 11.7438 38.7471 12.7315 39.2449 13.8361C39.7427 14.9406 40 16.1372 40 17.3474C40 18.5575 39.7427 19.7541 39.2449 20.8586C38.7471 21.9632 38.0201 22.9509 37.1114 23.7571ZM31.3335 10.1737C29.9051 10.1737 28.5088 10.5944 27.3211 11.3827C26.1334 12.1709 25.2077 13.2913 24.661 14.6021C24.1144 15.9129 23.9714 17.3553 24.25 18.7469C24.5287 20.1384 25.2166 21.4167 26.2266 22.4199C27.2367 23.4232 28.5236 24.1064 29.9245 24.3832C31.3255 24.66 32.7777 24.5179 34.0974 23.975C35.4171 23.432 36.545 22.5126 37.3386 21.3329C38.1322 20.1531 38.5558 18.7662 38.5558 17.3474C38.5558 15.4448 37.7949 13.6201 36.4405 12.2748C35.086 10.9295 33.249 10.1737 31.3335 10.1737ZM25.5557 28.8253V23.7571C23.9716 22.3335 22.9726 20.3789 22.7506 18.2685C22.5285 16.1581 23.0989 14.0406 24.3524 12.3224C25.6059 10.6042 27.4542 9.40635 29.5424 8.95881C31.6306 8.51127 33.8116 8.84556 35.6669 9.8975V5.1521C35.6669 4.96185 35.5908 4.77938 35.4554 4.64485C35.3199 4.51032 35.1362 4.43474 34.9447 4.43474H3.16668C2.97513 4.43474 2.79143 4.51032 2.65599 4.64485C2.52055 4.77938 2.44445 4.96185 2.44445 5.1521V28.1079C2.44445 28.2981 2.52055 28.4806 2.65599 28.6151C2.79143 28.7497 2.97513 28.8253 3.16668 28.8253H25.5557ZM35.6669 24.7972C34.3505 25.5561 32.8556 25.9558 31.3335 25.9558C29.8115 25.9558 28.3165 25.5561 27.0002 24.7972V34.0459L30.9724 31.7898C31.0822 31.7268 31.2068 31.6937 31.3335 31.6937C31.4603 31.6937 31.5849 31.7268 31.6947 31.7898L35.6669 34.0459V24.7972Z" fill="#E7214D"/>
</svg>
