<svg width="30" height="30" viewBox="0 0 30 30" fill="none" xmlns="http://www.w3.org/2000/svg">
<g clip-path="url(#clip0_201_155)">
<path d="M15.0001 1.5625C7.57196 1.57062 1.55634 7.59875 1.56446 15.0269C1.56636 17.281 2.13528 19.4984 3.21884 21.475L2.18759 27.8125L8.52509 26.7812C15.0313 30.35 23.2001 27.9694 26.7688 21.4625C30.3376 14.9556 27.9576 6.78812 21.4507 3.21875C19.4737 2.13423 17.255 1.56466 15.0001 1.5625ZM8.28134 7.66875H11.9438C12.1096 7.66875 12.2686 7.7346 12.3858 7.85181C12.503 7.96902 12.5688 8.12799 12.5688 8.29375C12.5483 9.12725 12.6884 9.95691 12.9813 10.7375C13.1075 10.9988 13.1352 11.2968 13.0595 11.5769C12.9837 11.857 12.8095 12.1004 12.5688 12.2625L11.2876 13.5125C11.8557 14.6219 12.5985 15.6327 13.4876 16.5062C14.354 17.4098 15.3608 18.1675 16.4688 18.75L17.7188 17.4688C18.3438 16.8438 18.6313 16.8437 19.2438 17.0562C20.0244 17.3492 20.8541 17.4893 21.6876 17.4688C21.8509 17.4764 22.0055 17.5446 22.1211 17.6603C22.2367 17.7759 22.305 17.9304 22.3126 18.0937V21.7563C22.305 21.9196 22.2367 22.0741 22.1211 22.1898C22.0055 22.3054 21.8509 22.3736 21.6876 22.3812C18.0111 22.2211 14.5261 20.697 11.9126 18.1062C9.31782 15.4955 7.79298 12.0089 7.63759 8.33125C7.63907 8.15922 7.7068 7.99438 7.8267 7.87099C7.94659 7.74761 8.10942 7.67517 8.28134 7.66875Z" stroke="white" stroke-width="1.4" stroke-linecap="round" stroke-linejoin="round"/>
</g>
<defs>
<clipPath id="clip0_201_155">
<rect width="30" height="30" fill="white"/>
</clipPath>
</defs>
</svg>
