<svg width="27" height="27" viewBox="0 0 27 27" fill="none" xmlns="http://www.w3.org/2000/svg">
<path d="M13.7485 2C7.80601 2.0065 2.99351 6.829 3.00001 12.7715C3.00153 14.5748 3.45666 16.3487 4.32351 17.93L3.49851 23L8.56851 22.175C13.7735 25.03 20.3085 23.1255 23.1635 17.92C26.0185 12.7145 24.1145 6.1805 18.909 3.325C17.3274 2.45739 15.5524 2.00173 13.7485 2ZM8.37351 6.885H11.3035C11.4361 6.885 11.5633 6.93768 11.6571 7.03145C11.7508 7.12521 11.8035 7.25239 11.8035 7.385C11.7871 8.0518 11.8991 8.71553 12.1335 9.34C12.2344 9.54904 12.2566 9.78746 12.196 10.0115C12.1354 10.2356 11.9961 10.4303 11.8035 10.56L10.7785 11.56C11.233 12.4475 11.8272 13.2562 12.5385 13.955C13.2317 14.6778 14.037 15.284 14.9235 15.75L15.9235 14.725C16.4235 14.225 16.6535 14.225 17.1435 14.395C17.768 14.6294 18.4317 14.7414 19.0985 14.725C19.2292 14.7311 19.3528 14.7857 19.4453 14.8782C19.5378 14.9707 19.5924 15.0944 19.5985 15.225V18.155C19.5924 18.2856 19.5378 18.4093 19.4453 18.5018C19.3528 18.5943 19.2292 18.6489 19.0985 18.655C16.1573 18.5269 13.3693 17.3076 11.2785 15.235C9.20269 13.1464 7.98282 10.3571 7.85851 7.415C7.8597 7.27737 7.91388 7.1455 8.00979 7.04679C8.10571 6.94809 8.23597 6.89014 8.37351 6.885Z" stroke="white" stroke-linecap="round" stroke-linejoin="round"/>
</svg>
