<svg width="41" height="40" viewBox="0 0 41 40" fill="none" xmlns="http://www.w3.org/2000/svg">
<path d="M25.5 36.6667L25.0384 37.36C25.1638 37.4435 25.3096 37.4914 25.4602 37.4986C25.6108 37.5058 25.7605 37.4721 25.8934 37.4009C26.0262 37.3298 26.1374 37.2239 26.2148 37.0946C26.2923 36.9653 26.3333 36.8174 26.3334 36.6667H25.5ZM20.5 33.3334L20.9617 32.64C20.8249 32.549 20.6643 32.5005 20.5 32.5005C20.3357 32.5005 20.1751 32.549 20.0384 32.64L20.5 33.3334ZM15.5 36.6667H14.6667C14.6668 36.8174 14.7077 36.9653 14.7852 37.0946C14.8627 37.2239 14.9738 37.3298 15.1067 37.4009C15.2396 37.4721 15.3893 37.5058 15.5398 37.4986C15.6904 37.4914 15.8362 37.4435 15.9617 37.36L15.5 36.6667ZM25.9617 35.9734L20.9617 32.64L20.0384 34.0267L25.0384 37.36L25.9617 35.9734ZM20.0384 32.64L15.0384 35.9734L15.9617 37.36L20.9617 34.0267L20.0384 32.64ZM22.405 5.19002L22.475 5.27336L23.7434 4.19336L23.6734 4.11002L22.405 5.19002ZM25.9817 6.72669L26.09 6.71669L25.9567 5.05669L25.8484 5.06502L25.9817 6.72669ZM28.7817 9.41002L28.775 9.51836L30.435 9.65169L30.4434 9.54336L28.7817 9.41002ZM30.2267 13.025L30.31 13.0967L31.39 11.8267L31.3067 11.7567L30.2267 13.025ZM30.31 16.905L30.2267 16.975L31.3067 18.2434L31.39 18.1734L30.31 16.905ZM28.775 20.4817L28.7834 20.59L30.4434 20.4567L30.435 20.3484L28.775 20.4817ZM26.0917 23.2817L25.9817 23.2734L25.8484 24.935L25.9567 24.9434L26.0917 23.2817ZM22.475 24.7267L22.4034 24.81L23.6734 25.89L23.7434 25.8067L22.475 24.7267ZM18.5967 24.81L18.525 24.7267L17.2567 25.8067L17.3267 25.89L18.5967 24.81ZM15.0184 23.275L14.91 23.2834L15.0434 24.9434L15.1517 24.935L15.0184 23.275ZM12.2184 20.5917L12.2267 20.4817L10.565 20.3484L10.5567 20.4567L12.2184 20.5917ZM10.7734 16.975L10.69 16.9034L9.61002 18.1734L9.69336 18.2434L10.7734 16.975ZM10.69 13.0967L10.7734 13.025L9.69336 11.7567L9.61002 11.8267L10.69 13.0967ZM12.2267 9.51836L12.2167 9.41002L10.5567 9.54336L10.565 9.65169L12.2267 9.51836ZM14.91 6.71836L15.0184 6.72669L15.1517 5.06502L15.0434 5.05669L14.91 6.71836ZM18.5267 5.27336L18.595 5.19002L17.3267 4.11002L17.2567 4.19336L18.5267 5.27336ZM15.0184 6.72669C15.6765 6.77973 16.3377 6.67562 16.9477 6.42294C17.5577 6.17025 18.0989 5.77624 18.5267 5.27336L17.2567 4.19336C17 4.49503 16.6752 4.73137 16.3093 4.88292C15.9433 5.03447 15.5465 5.09689 15.1517 5.06502L15.0184 6.72669ZM12.2167 9.41002C12.1876 9.04922 12.2388 8.6864 12.3636 8.34664C12.4885 8.00687 12.6856 7.69827 12.9414 7.44216C13.1972 7.18604 13.5055 6.98853 13.8452 6.86328C14.1848 6.73802 14.5475 6.68801 14.9084 6.71669L15.0434 5.05669C14.4419 5.00842 13.8355 5.09135 13.2692 5.29975C12.703 5.50816 12.1887 5.83706 11.7621 6.26372C11.3354 6.69038 11.0065 7.20462 10.7981 7.77088C10.5897 8.33714 10.5084 8.9419 10.5567 9.54336L12.2167 9.41002ZM10.7734 13.025C11.2762 12.5972 11.6703 12.0577 11.9229 11.4477C12.1756 10.8377 12.2797 10.1765 12.2267 9.51836L10.565 9.65169C10.5969 10.0465 10.5345 10.4433 10.3829 10.8093C10.2314 11.1752 9.99502 11.5 9.69336 11.7567L10.7734 13.025ZM10.69 16.9034C10.4144 16.6687 10.1931 16.3769 10.0413 16.0483C9.88953 15.7197 9.81093 15.362 9.81093 15C9.81093 14.638 9.88953 14.2804 10.0413 13.9518C10.1931 13.6231 10.4144 13.3314 10.69 13.0967L9.61002 11.8267C9.15033 12.2178 8.7811 12.7042 8.5279 13.2521C8.27469 13.8 8.14355 14.3964 8.14355 15C8.14355 15.6036 8.27469 16.2 8.5279 16.7479C8.7811 17.2958 9.15033 17.7822 9.61002 18.1734L10.69 16.9034ZM12.2267 20.4817C12.2795 19.8239 12.1752 19.1629 11.9225 18.5532C11.6699 17.9436 11.276 17.4027 10.7734 16.975L9.69336 18.2434C9.99502 18.5001 10.2314 18.8248 10.3829 19.1908C10.5345 19.5568 10.5969 19.9535 10.565 20.3484L12.2267 20.4817ZM14.91 23.2817C14.5491 23.3109 14.1861 23.2613 13.8462 23.1363C13.5063 23.0114 13.1976 22.8141 12.9415 22.5581C12.6853 22.3021 12.4879 21.9936 12.3627 21.6538C12.2376 21.3139 12.1878 20.951 12.2167 20.59L10.5567 20.4567C10.5082 21.0583 10.5909 21.6632 10.7992 22.2297C11.0075 22.7962 11.3363 23.3106 11.763 23.7375C12.1897 24.1643 12.7041 24.4934 13.2704 24.7019C13.8368 24.9104 14.4417 24.9933 15.0434 24.945L14.91 23.2817ZM22.4034 24.81C22.1687 25.0856 21.8769 25.3069 21.5483 25.4587C21.2197 25.6105 20.862 25.6891 20.5 25.6891C20.138 25.6891 19.7804 25.6105 19.4518 25.4587C19.1231 25.3069 18.8314 25.0856 18.5967 24.81L17.3267 25.89C17.7178 26.3497 18.2042 26.7189 18.7521 26.9722C19.3 27.2254 19.8964 27.3565 20.5 27.3565C21.1036 27.3565 21.7 27.2254 22.2479 26.9722C22.7958 26.7189 23.2822 26.3497 23.6734 25.89L22.4034 24.81ZM28.7834 20.59C28.8126 20.9511 28.7629 21.3143 28.6379 21.6543C28.5129 21.9943 28.3154 22.3031 28.0593 22.5593C27.8031 22.8154 27.4943 23.0129 27.1543 23.1379C26.8143 23.2629 26.4511 23.3126 26.09 23.2834L25.9567 24.9434C26.5583 24.9919 27.1632 24.9091 27.7297 24.7009C28.2962 24.4926 28.8106 24.1637 29.2375 23.737C29.6643 23.3103 29.9934 22.796 30.2019 22.2296C30.4104 21.6632 30.4917 21.0583 30.4434 20.4567L28.7834 20.59ZM30.2267 16.9734C29.7241 17.4013 29.3304 17.9426 29.078 18.5526C28.8256 19.1625 28.7218 19.8237 28.775 20.4817L30.435 20.3484C30.4032 19.9535 30.4656 19.5568 30.6171 19.1908C30.7687 18.8248 31.005 18.5001 31.3067 18.2434L30.2267 16.9734ZM30.31 13.0967C30.5856 13.3314 30.8069 13.6231 30.9587 13.9518C31.1105 14.2804 31.1891 14.638 31.1891 15C31.1891 15.362 31.1105 15.7197 30.9587 16.0483C30.8069 16.3769 30.5856 16.6703 30.31 16.905L31.39 18.1734C31.8497 17.7822 32.2189 17.2958 32.4722 16.7479C32.7254 16.2 32.8565 15.6036 32.8565 15C32.8565 14.3964 32.7254 13.8 32.4722 13.2521C32.2189 12.7042 31.8497 12.2178 31.39 11.8267L30.31 13.0967ZM28.775 9.51836C28.7221 10.1761 28.826 10.8369 29.0784 11.4466C29.3308 12.0562 29.7244 12.5972 30.2267 13.025L31.3067 11.7567C31.005 11.5 30.7687 11.1752 30.6171 10.8093C30.4656 10.4433 30.4032 10.0465 30.435 9.65169L28.775 9.51836ZM26.0917 6.71836C26.4525 6.68945 26.8153 6.73924 27.155 6.86429C27.4947 6.98933 27.8032 7.18665 28.0591 7.44261C28.3151 7.69856 28.5124 8.00704 28.6374 8.34673C28.7625 8.68642 28.8106 9.04921 28.7817 9.41002L30.4434 9.54336C30.4917 8.94175 30.4104 8.33683 30.2019 7.77044C29.9934 7.20406 29.6643 6.68973 29.2375 6.26304C28.8106 5.83635 28.2962 5.50748 27.7297 5.29919C27.1632 5.0909 26.5583 5.00816 25.9567 5.05669L26.0917 6.71836ZM22.475 5.27336C22.9027 5.776 23.4436 6.16987 24.0532 6.42254C24.6629 6.67521 25.3239 6.77946 25.9817 6.72669L25.8484 5.06502C25.4535 5.09689 25.0568 5.03447 24.6908 4.88292C24.3248 4.73137 24.0001 4.49503 23.7434 4.19336L22.475 5.27336ZM23.6734 4.11002C23.2822 3.65033 22.7958 3.2811 22.2479 3.0279C21.7 2.77469 21.1036 2.64355 20.5 2.64355C19.8964 2.64355 19.3 2.77469 18.7521 3.0279C18.2042 3.2811 17.7178 3.65033 17.3267 4.11002L18.595 5.19002C18.8297 4.91443 19.1231 4.6931 19.4518 4.54132C19.7804 4.38953 20.138 4.31093 20.5 4.31093C20.862 4.31093 21.2197 4.38953 21.5483 4.54132C21.8769 4.6931 22.1703 4.91443 22.405 5.19002L23.6734 4.11002ZM18.5267 24.7267C18.1555 24.2907 17.6984 23.9358 17.184 23.6844C16.6695 23.4329 16.1088 23.2885 15.5367 23.2634L15.4634 24.93C15.8065 24.9451 16.1428 25.0308 16.4513 25.1816C16.7599 25.3324 17.034 25.5452 17.2567 25.8067L18.5267 24.7267ZM15.5367 23.2634C15.3639 23.2553 15.1908 23.2598 15.0184 23.2734L15.1517 24.935C15.2567 24.9267 15.36 24.925 15.4634 24.93L15.5367 23.2634ZM16.3334 36.6667V24.0967H14.6667V36.6667H16.3334ZM25.9834 23.2734C25.8104 23.2597 25.6367 23.2569 25.4634 23.265L25.5367 24.93C25.64 24.925 25.7434 24.9267 25.8484 24.935L25.9834 23.2734ZM25.4634 23.265C24.8916 23.2904 24.3311 23.4332 23.817 23.6847C23.3028 23.9362 22.846 24.2909 22.475 24.7267L23.7434 25.8067C23.966 25.5452 24.2402 25.3324 24.5487 25.1816C24.8573 25.0308 25.1936 24.9451 25.5367 24.93L25.4634 23.265ZM24.6667 24.0984V36.6667H26.3334V24.0967L24.6667 24.0984Z" fill="#E7214D"/>
<path d="M23.8337 13.3334L18.8337 18.3334L17.167 16.6667" stroke="#E7214D" stroke-width="1.5" stroke-linecap="round" stroke-linejoin="round"/>
</svg>
