<svg width="93" height="42" viewBox="0 0 93 42" fill="none" xmlns="http://www.w3.org/2000/svg">
<path d="M93.0006 18.6834C92.7403 18.8135 92.1764 18.9437 91.6124 18.9437C89.9928 18.9437 89.3132 18.0616 89.3132 16.3118V12.7979H88.3877V11.0193H89.3132V9.35629L91.6413 8.70557V11.0193H93.0006V12.7979H91.6413V16.1383C91.6413 16.6733 91.9595 16.8469 92.4077 16.8469C92.6246 16.8469 92.856 16.789 93.0006 16.7167V18.6834Z" fill="black"/>
<path d="M87.6228 16.4853C87.6228 18.0182 86.5238 18.987 84.3113 18.987C83.2702 18.987 82.2435 18.7123 81.665 18.423L82.417 16.6299C82.793 16.8613 83.7184 17.1216 84.239 17.1216C84.7885 17.1216 85.1356 16.8613 85.1356 16.4709C85.1356 16.0226 84.7018 15.8346 84.1378 15.6322C83.2123 15.2996 81.8675 14.8224 81.8675 13.2317C81.8675 11.7712 82.981 10.8457 84.8898 10.8457C85.9598 10.8457 86.7985 11.0771 87.4204 11.4097L86.7118 13.0148C86.3937 12.8268 85.6995 12.581 85.2079 12.581C84.6439 12.581 84.3113 12.8413 84.3113 13.2172C84.3113 13.6944 84.7451 13.8824 85.3236 14.0849C86.278 14.4175 87.6228 14.8513 87.6228 16.4853Z" fill="black"/>
<path d="M81.1308 10.9325L80.697 12.8702C80.4657 12.7834 80.1331 12.7256 79.8149 12.7256C79.5113 12.7256 79.222 12.769 79.0051 12.8557V18.8135H76.6191V11.4097C77.4868 11.0771 78.6292 10.8457 80.0029 10.8457C80.4657 10.8457 80.8561 10.8891 81.1308 10.9325Z" fill="black"/>
<path d="M75.1678 8.72017C75.1678 9.39982 74.5604 9.94932 73.8374 9.94932C73.1144 9.94932 72.5215 9.39982 72.5215 8.72017C72.5215 8.04052 73.1144 7.47656 73.8374 7.47656C74.5604 7.47656 75.1678 8.04052 75.1678 8.72017ZM75.0376 18.8137H72.6516V11.0194H75.0376V18.8137Z" fill="black"/>
<path d="M71.3441 10.3976H68.1483V12.5378H71.0115V14.5478H68.1483V18.8137H65.7334V8.34424H71.3441V10.3976Z" fill="black"/>
<path d="M60.9238 14.5042C60.9238 14.7501 60.9238 14.9814 60.8949 15.2273L56.0362 15.8635C56.2241 16.7167 56.9616 17.1361 57.9305 17.1361C58.7114 17.1361 59.5501 16.9481 60.1285 16.6589L60.7937 18.423C60.0851 18.7556 58.9138 18.987 57.7425 18.987C55.0384 18.987 53.708 17.2228 53.708 14.9091C53.708 12.5231 55.0962 10.8457 57.4388 10.8457C59.7092 10.8457 60.9238 12.3641 60.9238 14.5042ZM58.6246 14.0415C58.6246 13.0582 58.1474 12.5231 57.381 12.5231C56.5423 12.5231 55.8916 13.1016 55.8771 14.3885L58.6246 14.0415Z" fill="black"/>
<path d="M52.4043 18.8135H50.0183V13.7957C50.0183 13.1015 49.6423 12.74 48.8903 12.74C48.5867 12.74 48.2541 12.8268 48.0227 12.9425V18.8135H45.6367V7.46191H48.0227V11.2072C48.4565 11.0192 48.9916 10.8891 49.5266 10.8891C51.392 10.8891 52.4043 11.829 52.4043 13.5498V18.8135Z" fill="black"/>
<path d="M44.3254 10.3976H42.3298V18.8137H39.8715V10.3976H37.876V8.34424H44.3254V10.3976Z" fill="black"/>
<path d="M80.2168 27.1812L76.1389 38.0844H73.6372L74.8085 34.9754L71.873 27.1812H74.5627L75.7774 31.6639C75.9365 32.2713 76.0232 32.9798 76.0232 32.9798H76.0522C76.0522 32.9798 76.1534 32.2713 76.3124 31.6639L77.5271 27.1812H80.2168Z" fill="black"/>
<path d="M71.2672 34.8455C71.0069 34.9756 70.443 35.1058 69.879 35.1058C68.2594 35.1058 67.5798 34.2237 67.5798 32.4739V28.96H66.6543V27.1814H67.5798V25.5184L69.9079 24.8677V27.1814H71.2672V28.96H69.9079V32.3004C69.9079 32.8355 70.2261 33.009 70.6743 33.009C70.8912 33.009 71.1226 32.9511 71.2672 32.8788V34.8455Z" fill="black"/>
<path d="M65.4768 34.9756H63.0908V23.624H65.4768V34.9756Z" fill="black"/>
<path d="M61.5173 34.5852C60.9244 34.8888 59.7242 35.1491 58.4806 35.1491C56.0223 35.1491 54.8076 34.2381 54.8076 32.5751C54.8076 30.5073 56.9189 30.0301 59.2759 29.8999V29.5963C59.2759 28.9745 58.8421 28.6852 58.0323 28.6852C57.2804 28.6852 56.3838 28.9311 55.8199 29.1624L55.2414 27.5718C55.9355 27.297 57.1068 27.0078 58.3215 27.0078C60.4472 27.0078 61.5173 27.8176 61.5173 29.8855V34.5852ZM59.2759 33.3849V31.3894C57.9889 31.4472 57.0201 31.5918 57.0201 32.5173C57.0201 33.1536 57.5551 33.5006 58.4083 33.5006C58.7409 33.5006 59.1169 33.4428 59.2759 33.3849Z" fill="black"/>
<path d="M53.919 30.6663C53.919 30.9122 53.919 31.1435 53.89 31.3894L49.0313 32.0256C49.2193 32.8788 49.9568 33.2982 50.9256 33.2982C51.7065 33.2982 52.5452 33.1102 53.1236 32.821L53.7888 34.5852C53.0802 34.9178 51.9089 35.1491 50.7376 35.1491C48.0335 35.1491 46.7031 33.3849 46.7031 31.0712C46.7031 28.6852 48.0913 27.0078 50.434 27.0078C52.7043 27.0078 53.919 28.5262 53.919 30.6663ZM51.6197 30.2036C51.6197 29.2203 51.1425 28.6852 50.3761 28.6852C49.5374 28.6852 48.8867 29.2637 48.8722 30.5507L51.6197 30.2036Z" fill="black"/>
<path d="M46.2916 34.9755H43.7032L42.5608 31.8665C42.3583 31.3025 41.9535 30.9121 41.3172 30.9121H40.7098V34.9755H38.2949V24.8965C39.1626 24.535 40.3628 24.3325 41.5919 24.3325C44.2961 24.3325 45.6843 25.5327 45.6843 27.5862C45.6843 29.0177 44.7733 29.7842 43.8478 30.1312V30.1601C44.3973 30.4783 44.7877 31.0712 45.048 31.7653L46.2916 34.9755ZM43.2694 27.7308C43.2694 26.7185 42.7922 26.169 41.6498 26.169C41.3172 26.169 40.9267 26.2124 40.7098 26.2847V29.1768H41.6498C42.7343 29.1768 43.2694 28.6996 43.2694 27.7308Z" fill="black"/>
<path fill-rule="evenodd" clip-rule="evenodd" d="M0 0H31.8769V36.6296H22.3719V8.80961H9.50501V36.6296H0V0Z" fill="#E7214D"/>
<path fill-rule="evenodd" clip-rule="evenodd" d="M9.50488 8.80957L15.4169 13.9223V41.7423L9.50488 36.6295V8.80957Z" fill="#C21D41"/>
<path fill-rule="evenodd" clip-rule="evenodd" d="M0 0H31.8769V36.6296H22.3719V8.80961H9.50501V36.6296H0V0Z" fill="#E7214D"/>
</svg>
