<svg width="44" height="44" viewBox="0 0 44 44" fill="none" xmlns="http://www.w3.org/2000/svg">
<g clip-path="url(#clip0_201_301)">
<path d="M22 3.66669C26.3761 3.66669 30.5729 5.40507 33.6673 8.49942C36.7616 11.5938 38.5 15.7906 38.5 20.1667C38.5 25.8024 35.4273 30.415 32.1897 33.7242C30.5721 35.3596 28.807 36.8424 26.917 38.1535L26.136 38.6852L25.7693 38.929L25.0782 39.369L24.4622 39.7449L23.6995 40.1885C23.1818 40.484 22.5961 40.6394 22 40.6394C21.4039 40.6394 20.8182 40.484 20.3005 40.1885L19.5378 39.7449L18.5845 39.1582L18.2325 38.929L17.4808 38.4285C15.4419 37.049 13.5427 35.4734 11.8103 33.7242C8.57267 30.4132 5.5 25.8024 5.5 20.1667C5.5 15.7906 7.23839 11.5938 10.3327 8.49942C13.4271 5.40507 17.6239 3.66669 22 3.66669ZM22 14.6667C21.2777 14.6667 20.5625 14.8089 19.8952 15.0853C19.228 15.3618 18.6216 15.7669 18.1109 16.2776C17.6002 16.7883 17.1951 17.3946 16.9187 18.0619C16.6423 18.7292 16.5 19.4444 16.5 20.1667C16.5 20.889 16.6423 21.6042 16.9187 22.2714C17.1951 22.9387 17.6002 23.5451 18.1109 24.0558C18.6216 24.5665 19.228 24.9716 19.8952 25.248C20.5625 25.5244 21.2777 25.6667 22 25.6667C23.4587 25.6667 24.8576 25.0872 25.8891 24.0558C26.9205 23.0243 27.5 21.6254 27.5 20.1667C27.5 18.708 26.9205 17.309 25.8891 16.2776C24.8576 15.2461 23.4587 14.6667 22 14.6667Z" fill="#E7214D"/>
</g>
<defs>
<clipPath id="clip0_201_301">
<rect width="44" height="44" fill="white"/>
</clipPath>
</defs>
</svg>
