<svg width="30" height="30" viewBox="0 0 30 30" fill="none" xmlns="http://www.w3.org/2000/svg">
<path d="M22.1342 17.1337L25.4442 20.4437C25.5501 20.5496 25.6341 20.6753 25.6914 20.8136C25.7487 20.9519 25.7782 21.1002 25.7782 21.25C25.7782 21.3997 25.7487 21.548 25.6914 21.6863C25.6341 21.8247 25.5501 21.9504 25.4442 22.0562C24.2801 23.2201 22.7353 23.9251 21.0933 24.0418C19.4513 24.1584 17.8223 23.6789 16.5054 22.6912L14.5367 21.2137C12.3572 19.5792 10.4212 17.6432 8.78669 15.4637L7.30919 13.495C6.3215 12.1781 5.84196 10.5491 5.95861 8.90709C6.07525 7.26509 6.78025 5.72027 7.94419 4.55621C8.05005 4.45031 8.17574 4.3663 8.31408 4.30899C8.45242 4.25167 8.60069 4.22217 8.75044 4.22217C8.90018 4.22217 9.04845 4.25167 9.18679 4.30899C9.32513 4.3663 9.45082 4.45031 9.55669 4.55621L12.8667 7.86622C13.101 8.10062 13.2327 8.41851 13.2327 8.74996C13.2327 9.08142 13.101 9.39931 12.8667 9.63371L11.5904 10.91C11.4913 11.0089 11.4259 11.1365 11.4035 11.2748C11.381 11.413 11.4027 11.5548 11.4654 11.68C12.9486 14.6464 15.354 17.0518 18.3204 18.535C18.4456 18.5977 18.5874 18.6194 18.7256 18.5969C18.8639 18.5745 18.9915 18.5091 19.0904 18.41L20.3654 17.135C20.4815 17.0187 20.6194 16.9265 20.7711 16.8636C20.9229 16.8007 21.0855 16.7684 21.2498 16.7684C21.4141 16.7684 21.5767 16.8007 21.7285 16.8636C21.8802 16.9265 22.0181 17.0187 22.1342 17.135V17.1337Z" stroke="white" stroke-width="1.4"/>
</svg>
